# xmcd CD database file
#
# Track frame offsets:
#	150
#	18870
#	40277
#	63540
#	83222
#	99542
#	116960
#	137152
#	155367
#	175755
#	198327
#	216980
#	239000
#	261887
#	278245
#	296952
#
# Disc length: 4204 seconds
#
# Revision: 2
# Processed by: cddbd v1.5.2PL0 Copyright (c) Steve Scherf et al.
# Submitted via: CD2WAV32(JP) R3.22
#
DISCID=f7106a10
DTITLE=千昌夫／吉幾三 - 千昌夫／吉幾三ベストヒット16
DYEAR=1992
DGENRE=Pop
TTITLE0=千昌夫/津軽平野
TTITLE1=千昌夫/あんた
TTITLE2=吉幾三/夜更けのメロディー
TTITLE3=吉幾三/女のかぞえ唄
TTITLE4=千昌夫/おやじの酒
TTITLE5=千昌夫/星影のワルツ
TTITLE6=吉幾三/東日流(つがる)
TTITLE7=千昌夫/北国の春
TTITLE8=吉幾三/雪国
TTITLE9=吉幾三/礼文島
TTITLE10=千昌夫/おやじ先生
TTITLE11=吉幾三/津軽路
TTITLE12=吉幾三/窓を開ければ
TTITLE13=千昌夫/乾杯しょうぜ
TTITLE14=千昌夫/望郷酒場
TTITLE15=吉幾三/酒よ
EXTD=
EXTT0=
EXTT1=
EXTT2=
EXTT3=
EXTT4=
EXTT5=
EXTT6=
EXTT7=
EXTT8=
EXTT9=
EXTT10=
EXTT11=
EXTT12=
EXTT13=
EXTT14=
EXTT15=
PLAYORDER=
